<?xml version="1.0" encoding="UTF-8" standalone="no" ?>
<!DOCTYPE svg PUBLIC "-//W3C//DTD SVG 1.1//EN" "http://www.w3.org/Graphics/SVG/1.1/DTD/svg11.dtd">
<svg xmlns="http://www.w3.org/2000/svg" xmlns:xlink="http://www.w3.org/1999/xlink" version="1.1" width="1280" height="1024" viewBox="0 0 1280 1024" xml:space="preserve">
<desc>Created with Fabric.js 5.3.0</desc>
<defs>
</defs>
<g transform="matrix(1 0 0 1 640 512)" id="background-logo"  >
<rect style="stroke: none; stroke-width: 0; stroke-dasharray: none; stroke-linecap: butt; stroke-dashoffset: 0; stroke-linejoin: miter; stroke-miterlimit: 4; fill: rgb(28,4,44); fill-rule: nonzero; opacity: 1;"  paint-order="stroke"  x="-640" y="-512" rx="0" ry="0" width="1280" height="1024" />
</g>
<g transform="matrix(2.117156992635368 0 0 2.117156992635368 640 434.96145051829626)" id="logo-logo"  >
<g style=""  paint-order="stroke"   >
		<g transform="matrix(0.9852420048470403 0 0 0.9852420048470404 0 0)"  >
<g style=""  paint-order="stroke"   >
		<g transform="matrix(1 0 0 1 0 0)"  >
<linearGradient id="SVGID_12874" gradientUnits="userSpaceOnUse" gradientTransform="matrix(1 0 0 1 0 0)"  x1="0" y1="0" x2="0" y2="200">
<stop offset="0%" style="stop-color:rgb(113,23,234);stop-opacity: 1"/>
<stop offset="100%" style="stop-color:rgb(234,96,96);stop-opacity: 1"/>
</linearGradient>
<path style="stroke: none; stroke-width: 1; stroke-dasharray: none; stroke-linecap: butt; stroke-dashoffset: 0; stroke-linejoin: miter; stroke-miterlimit: 4; fill: url(#SVGID_12874); fill-rule: nonzero; opacity: 1;"  paint-order="stroke"  transform=" translate(-95, -100)" d="M 190 94 L 95 0 L 0 94 L 6.11 100 L 0 106 L 95 200 L 190 106 L 183.89 100 Z M 2.83 94 L 95 2.8 L 187.17 94 L 182.48 98.64 L 95 12.09 L 7.52 98.6 Z M 181.06 100 L 95 185.12 L 8.94 100 L 95 14.88 Z M 187.17000000000002 106 L 95 197.2 L 2.83 106 L 7.5200000000000005 101.36 L 95 187.91 L 182.48000000000002 101.39999999999999 Z" stroke-linecap="round" />
</g>
</g>
</g>
</g>
</g>
<g transform="matrix(1.9211538461538462 0 0 1.9211538461538462 637.8387094275845 713.591294727589)" id="text-logo"  >
<g style=""  paint-order="stroke"   >
		<g transform="matrix(1 0 0 1 -5.684342e-14 0)" id="text-logo-path-0"  >
<path style="stroke: none; stroke-width: 0; stroke-dasharray: none; stroke-linecap: butt; stroke-dashoffset: 0; stroke-linejoin: miter; stroke-miterlimit: 4; fill: rgb(217,171,248); fill-rule: nonzero; opacity: 1;"  paint-order="stroke"  transform=" translate(-194.63000000000002, 15.695)" d="M 0.4 -23.44 L 0.4 -23.44 Q 0.4 -25.71 2.42 -26.95 L 2.42 -26.95 Q 5.29 -28.67 10.57 -29.23 L 10.57 -29.23 Q 12.91 -29.47 14.83 -29.49 L 14.83 -29.49 L 14.91 -29.49 Q 15.19 -29.49 15.72 -29.16 Q 16.24 -28.83 16.24 -28.09 Q 16.24 -27.35 15.97 -26.43 Q 15.7 -25.5 15.25 -25.04 L 15.25 -25.04 Q 15.01 -23.08 14.19 -20.34 Q 13.37 -17.6 12.47 -14.47 L 12.47 -14.47 Q 10.17 -6.43 10.17 -1.8 L 10.17 -1.8 Q 10.17 0.62 5.45 0.62 L 5.45 0.62 Q 4.42 0.62 4.24 -0.43 Q 4.06 -1.48 4.06 -3.28 L 4.06 -3.28 Q 4.06 -6.81 5.91 -13.73 Q 7.75 -20.66 9.63 -24.84 L 9.63 -24.84 Q 5.25 -24.76 3.08 -23.12 L 3.08 -23.12 Q 2.42 -22.62 2.01 -22.24 Q 1.6 -21.86 1.29 -21.86 Q 0.98 -21.86 0.69 -22.33 Q 0.4 -22.8 0.4 -23.44 Z M 14.13 -13.63 Q 13.33 -14.27 13.33 -15.19 Q 13.33 -16.12 14.17 -16.53 Q 15.01 -16.94 16.08 -16.94 Q 17.14 -16.94 17.96 -16.44 L 17.96 -16.44 Q 20.18 -18.82 21.98 -22.68 L 21.98 -22.68 Q 22.8 -24.44 23.55 -26.31 Q 24.3 -28.17 25.12 -30.13 L 25.12 -30.13 Q 25.32 -30.63 26.01 -30.73 Q 26.69 -30.83 27.8 -30.83 Q 28.91 -30.83 29.36 -30.11 Q 29.81 -29.39 29.81 -27.78 Q 29.81 -26.17 28.95 -24.07 Q 28.09 -21.98 26.73 -20 L 26.73 -20 Q 23.9 -15.86 20.22 -13.77 L 20.22 -13.77 Q 20.88 -12.41 21.28 -10.8 Q 21.68 -9.19 22.05 -7.82 Q 22.42 -6.45 22.89 -5.52 Q 23.36 -4.58 24.06 -4.58 Q 24.76 -4.58 25.73 -5.39 Q 26.69 -6.19 27.63 -7.13 Q 28.57 -8.07 29.34 -8.87 Q 30.11 -9.67 30.43 -9.67 L 30.43 -9.67 Q 31.11 -9.67 31.11 -7.89 L 31.11 -7.89 Q 31.11 -7.83 31.11 -7.79 L 31.11 -7.79 Q 31.11 -6.77 30.25 -5.32 Q 29.39 -3.86 28.02 -2.65 Q 26.65 -1.44 24.96 -0.66 Q 23.28 0.12 21.77 0.12 Q 20.26 0.12 19.4 -0.45 Q 18.54 -1.02 18.04 -2 L 18.04 -2 Q 17.34 -3.4 16.89 -7.32 Q 16.44 -11.23 16 -12.79 L 16 -12.79 Q 14.93 -12.99 14.13 -13.63 Z M 44.88 -12.33 L 44.88 -12.33 Q 44.88 -13.55 46.88 -14.83 L 46.88 -14.83 Q 48.92 -16.1 52.42 -16.78 L 52.42 -16.78 Q 56.29 -26.57 61.85 -29.85 L 61.85 -29.85 Q 63.89 -31.07 66.2 -31.07 L 66.2 -31.07 Q 70.3 -31.03 72.12 -28.87 L 72.12 -28.87 Q 73.96 -26.67 73.96 -23.04 L 73.96 -23.04 Q 73.96 -19.48 71.78 -13.77 L 71.78 -13.77 Q 70.96 -11.55 70.26 -9.75 Q 69.56 -7.95 69.56 -6.85 Q 69.56 -5.75 69.72 -5.17 Q 69.88 -4.58 70.5 -4.58 L 70.5 -4.58 Q 71.6 -4.58 75.71 -8.85 L 75.71 -8.85 Q 76.45 -9.67 76.77 -9.67 L 76.77 -9.67 Q 77.47 -9.67 77.47 -7.79 L 77.47 -7.79 Q 77.47 -6.77 76.61 -5.32 Q 75.75 -3.86 74.37 -2.65 Q 73 -1.44 71.32 -0.66 Q 69.64 0.12 68.04 0.12 L 68.04 0.12 Q 65.62 0.12 64.69 -1.09 Q 63.77 -2.3 63.77 -4.65 Q 63.77 -7.01 65.62 -12.75 L 65.62 -12.75 Q 59.95 -12.99 57.39 -12.99 L 57.39 -12.99 L 56.81 -12.99 Q 56.07 -8.45 56.07 -3.44 L 56.07 -3.44 Q 56.07 -1.22 54.38 -0.4 L 54.38 -0.4 Q 53.6 -0.04 52.89 0.29 Q 52.18 0.62 51.36 0.62 L 51.36 0.62 Q 49.3 0.62 49.3 -3.12 L 49.3 -3.12 Q 49.3 -6.81 50.98 -12.55 L 50.98 -12.55 Q 49.18 -12.35 47.81 -12.14 Q 46.44 -11.93 45.66 -11.93 Q 44.88 -11.93 44.88 -12.33 Z M 57.71 -17.1 L 57.71 -17.1 L 67.02 -16.98 Q 68.04 -20.26 68.04 -21.9 L 68.04 -21.9 Q 68.04 -25.46 65.38 -25.46 L 65.38 -25.46 Q 62.67 -25.46 60.72 -23.18 Q 58.77 -20.9 57.71 -17.1 Z M 90.41 -24.26 L 90.41 -24.26 Q 90.41 -24.8 91.23 -25.85 Q 92.05 -26.89 93.57 -27.97 L 93.57 -27.97 Q 97.44 -30.59 102.14 -30.63 L 102.14 -30.63 L 115.64 -30.51 Q 116.74 -30.51 116.74 -29.65 L 116.74 -29.65 Q 116.74 -29.41 116.41 -28.77 Q 116.08 -28.13 115.84 -27.39 L 115.84 -27.39 Q 115.3 -25.91 113.6 -25.91 Q 111.91 -25.91 105.51 -26.17 L 105.51 -26.17 Q 105.35 -24.36 104.86 -21.55 Q 104.36 -18.74 103.78 -15.42 L 103.78 -15.42 Q 102.38 -6.93 102.34 -1.8 L 102.34 -1.8 Q 102.34 0.62 97.64 0.62 L 97.64 0.62 Q 96.62 0.62 96.43 -0.43 Q 96.24 -1.48 96.24 -3.03 Q 96.24 -4.58 96.47 -6.38 Q 96.7 -8.17 97.06 -10.25 L 97.06 -10.25 Q 97.76 -14.27 99.05 -18.93 Q 100.34 -23.58 101.62 -26.13 L 101.62 -26.13 Q 99.04 -25.97 96.5 -25.2 Q 93.95 -24.44 92.88 -24.13 Q 91.81 -23.82 91.11 -23.82 Q 90.41 -23.82 90.41 -24.26 Z M 130.1 -8.29 L 130.1 -8.29 Q 130.1 -14.15 135.97 -16.48 L 135.97 -16.48 Q 132.96 -18.56 132.96 -22.8 L 132.96 -22.8 Q 132.96 -24.8 134.08 -26.53 L 134.08 -26.53 Q 133.06 -27.67 132.42 -28.94 Q 131.78 -30.21 131.78 -30.87 L 131.78 -30.87 Q 131.78 -32.01 132.6 -32.01 L 132.6 -32.01 Q 133.18 -32.01 134.01 -31.13 Q 134.85 -30.25 135.39 -29.72 Q 135.93 -29.19 136.49 -28.87 L 136.49 -28.87 Q 139.97 -30.99 144.7 -30.99 Q 149.42 -30.99 150.96 -28.37 L 150.96 -28.37 Q 151.54 -27.39 151.54 -25.95 L 151.54 -25.95 Q 151.54 -23.76 149.66 -22.29 Q 147.78 -20.82 144.7 -20.82 Q 141.61 -20.82 138.95 -22.8 L 138.95 -22.8 Q 138.91 -22.64 138.91 -22.46 L 138.91 -22.46 L 138.91 -21.56 Q 138.91 -20.82 139.38 -19.82 Q 139.85 -18.82 140.55 -18.16 L 140.55 -18.16 Q 141.17 -18.28 141.91 -18.28 L 141.91 -18.28 Q 145.48 -18.28 145.48 -16.48 L 145.48 -16.48 Q 145.48 -14.39 141.37 -14.39 L 141.37 -14.39 Q 140.47 -14.39 139.41 -14.71 L 139.41 -14.71 Q 138.23 -13.89 137.59 -12.66 Q 136.95 -11.43 136.95 -9.12 Q 136.95 -6.81 138.77 -5.7 Q 140.59 -4.58 143.07 -4.58 Q 145.56 -4.58 147.1 -5.39 Q 148.64 -6.19 149.78 -7.13 Q 150.92 -8.07 151.64 -8.87 Q 152.36 -9.67 152.68 -9.67 L 152.68 -9.67 Q 153 -9.67 153.21 -9.24 Q 153.42 -8.81 153.42 -8.13 L 153.42 -8.13 Q 153.42 -4.84 149.8 -2.36 Q 146.18 0.12 141.13 0.12 L 141.13 0.12 Q 133.26 0.12 130.92 -4.42 L 130.92 -4.42 Q 130.1 -6.03 130.1 -8.29 Z M 140.15 -25.34 L 140.15 -25.34 Q 142.37 -23.98 144.69 -23.98 Q 147 -23.98 147 -25.34 L 147 -25.34 Q 147 -26.95 144.37 -26.95 Q 141.75 -26.95 140.15 -25.34 Z M 171.63 -24.06 Q 170.89 -24.06 170.89 -24.53 Q 170.89 -25 171.67 -26.08 Q 172.45 -27.15 173.96 -28.21 L 173.96 -28.21 Q 177.74 -30.85 182.48 -30.85 L 182.48 -30.85 Q 182.52 -30.85 182.56 -30.85 L 182.56 -30.85 Q 187.37 -30.83 190.49 -29.03 L 190.49 -29.03 Q 194.13 -26.91 194.13 -22.62 L 194.13 -22.62 Q 194.13 -22.54 194.13 -22.48 L 194.13 -22.48 Q 194.13 -19.06 192.29 -16.78 L 192.29 -16.78 Q 190.41 -14.45 187.61 -13.41 L 187.61 -13.41 Q 188.23 -12.05 188.62 -10.49 Q 189.01 -8.93 189.38 -7.62 Q 189.75 -6.31 190.22 -5.45 Q 190.69 -4.58 191.37 -4.58 Q 192.05 -4.58 193.01 -5.39 Q 193.97 -6.19 194.92 -7.13 Q 195.86 -8.07 196.62 -8.87 Q 197.38 -9.67 197.7 -9.67 L 197.7 -9.67 Q 198.4 -9.67 198.4 -7.79 L 198.4 -7.79 Q 198.4 -6.77 197.54 -5.32 Q 196.68 -3.86 195.31 -2.65 Q 193.93 -1.44 192.25 -0.66 Q 190.57 0.12 189.05 0.12 Q 187.53 0.12 186.67 -0.45 Q 185.81 -1.02 185.33 -2 L 185.33 -2 Q 184.63 -3.4 184.18 -7.32 Q 183.72 -11.23 183.26 -12.79 L 183.26 -12.79 Q 182.2 -12.99 181.4 -13.63 Q 180.6 -14.27 180.6 -15.19 Q 180.6 -16.12 181.44 -16.53 Q 182.28 -16.94 183.37 -16.94 Q 184.47 -16.94 185.33 -16.4 L 185.33 -16.4 Q 186.47 -17.34 187.19 -18.63 Q 187.91 -19.92 187.91 -22.11 Q 187.91 -24.3 186.43 -25.63 Q 184.95 -26.95 182.1 -26.95 Q 179.26 -26.95 177.74 -26.49 Q 176.22 -26.03 175.14 -25.49 Q 174.06 -24.96 173.21 -24.51 Q 172.37 -24.06 171.63 -24.06 Z M 173.01 0.62 Q 171.29 0.62 171.29 -3.34 Q 171.29 -7.31 173.14 -13.33 Q 175 -19.36 177 -22.5 L 177 -22.5 Q 177.4 -23.12 178.18 -23.78 Q 178.96 -24.44 179.86 -24.44 L 179.86 -24.44 Q 180.4 -24.44 180.4 -23.04 Q 180.4 -21.64 180.24 -20.42 L 180.24 -20.42 Q 179.88 -18.04 179.3 -16 L 179.3 -16 Q 177.82 -10.41 177.82 -9.47 L 177.82 -9.47 L 177.82 -3.44 Q 177.82 -1.22 176.14 -0.4 L 176.14 -0.4 Q 175.36 -0.04 174.64 0.29 Q 173.92 0.62 173.01 0.62 L 173.01 0.62 Z M 213.61 -4.18 L 213.61 -4.18 Q 213.65 -7.87 215.64 -15.99 Q 217.63 -24.1 219.39 -28.05 L 219.39 -28.05 Q 219.85 -29.07 220.66 -29.99 Q 221.47 -30.91 222.83 -30.91 L 222.83 -30.91 Q 223.41 -30.91 223.81 -30.22 Q 224.2 -29.53 224.2 -28.62 Q 224.2 -27.71 223.87 -25.93 Q 223.53 -24.14 223.04 -21.85 Q 222.55 -19.56 221.93 -16.9 L 221.93 -16.9 Q 219.71 -6.77 219.71 -0.94 L 219.71 -0.94 Q 219.71 0.2 218.07 0.2 L 218.07 0.2 Q 215.49 0.2 214.55 -0.8 Q 213.61 -1.8 213.61 -4.18 Z M 241.02 -25.58 L 241.02 -25.58 Q 241.02 -27.85 243.11 -29.27 L 243.11 -29.27 Q 245.11 -30.75 247.99 -30.75 L 247.99 -30.75 Q 252.01 -30.75 252.49 -26.81 L 252.49 -26.81 Q 252.63 -25.79 252.63 -24.6 L 252.63 -24.6 Q 252.63 -24.46 252.63 -24.3 L 252.63 -24.3 L 252.63 -24.02 Q 254.2 -27.03 256.39 -28.93 Q 258.58 -30.83 261.48 -30.83 L 261.48 -30.83 Q 265.51 -30.83 267.31 -28.71 L 267.31 -28.71 Q 269.09 -26.55 269.09 -23.04 L 269.09 -23.04 Q 269.09 -19.18 266.93 -13.69 L 266.93 -13.69 Q 266.11 -11.57 265.42 -9.76 Q 264.73 -7.95 264.73 -6.73 L 264.73 -6.73 Q 264.73 -4.6 265.67 -4.58 L 265.67 -4.58 Q 266.69 -4.58 269.23 -7.13 L 269.23 -7.13 Q 269.89 -7.79 270.63 -8.73 Q 271.37 -9.67 271.77 -9.67 L 271.77 -9.67 Q 272.61 -9.67 272.61 -8.15 L 272.61 -8.15 Q 272.61 -6.73 271.77 -5.33 L 271.77 -5.33 Q 270.91 -3.88 269.54 -2.66 Q 268.17 -1.44 266.49 -0.66 Q 264.81 0.12 263.2 0.12 L 263.2 0.12 Q 260.78 0.12 259.86 -1.09 Q 258.94 -2.3 258.94 -3.89 Q 258.94 -5.49 259.22 -7.05 L 259.22 -7.05 Q 259.72 -9.51 262.1 -16.56 L 262.1 -16.56 Q 263.2 -19.92 263.2 -21.6 Q 263.2 -23.28 262.56 -24.27 Q 261.92 -25.26 260.63 -25.26 Q 259.34 -25.26 258.12 -24.38 Q 256.9 -23.5 255.82 -22.06 L 255.82 -22.06 Q 253.9 -19.56 252.4 -15.52 Q 250.91 -11.47 250.45 -8.53 L 250.45 -8.53 Q 251.23 -4.76 251.23 -3.6 L 251.23 -3.6 Q 251.23 -1.22 249.55 -0.4 L 249.55 -0.4 Q 248.77 -0.04 248.05 0.29 Q 247.33 0.62 246.51 0.62 L 246.51 0.62 Q 244.47 0.62 244.47 -3.29 Q 244.47 -7.21 246.65 -18.62 L 246.65 -18.62 Q 247.41 -22.62 247.41 -23.18 L 247.41 -23.18 Q 247.41 -26.53 245.75 -26.53 L 245.75 -26.53 Q 245.17 -26.53 244.7 -26.2 Q 244.23 -25.87 243.76 -25.49 Q 243.29 -25.12 242.79 -24.8 Q 242.28 -24.48 241.65 -24.48 Q 241.02 -24.48 241.02 -25.58 Z M 315.76 -25.58 L 315.76 -25.58 Q 315.76 -27.85 317.84 -29.27 L 317.84 -29.27 Q 319.84 -30.75 322.64 -30.75 Q 325.43 -30.75 326.83 -28.45 L 326.83 -28.45 Q 327.89 -26.77 327.89 -24.65 Q 327.89 -22.54 327.44 -20.56 Q 326.99 -18.58 326.48 -16.49 Q 325.97 -14.39 325.52 -12.24 Q 325.07 -10.09 325.07 -8.72 Q 325.07 -7.35 325.19 -6.89 L 325.19 -6.89 Q 325.77 -5.08 327.97 -5.08 L 327.97 -5.08 Q 330.83 -5.08 332.98 -8.69 L 332.98 -8.69 Q 334.78 -11.73 335.52 -16.08 L 335.52 -16.08 L 335.76 -17.92 L 335.6 -26.49 Q 335.6 -28.35 337.24 -29.59 L 337.24 -29.59 Q 338.82 -30.79 340.56 -30.79 L 340.56 -30.79 Q 340.62 -30.79 340.68 -30.79 L 340.68 -30.79 Q 341.42 -30.79 341.63 -29.71 Q 341.84 -28.63 341.84 -27.31 Q 341.84 -25.99 341.67 -24.78 Q 341.5 -23.58 341.28 -22 Q 341.06 -20.42 340.76 -18.62 L 340.76 -18.62 Q 339.74 -11.45 339.74 -8.55 L 339.74 -8.55 Q 339.74 -8.43 339.74 -8.33 L 339.74 -8.33 Q 339.74 -4.6 340.76 -4.58 L 340.76 -4.58 Q 341.38 -4.58 342.28 -5.37 Q 343.19 -6.15 344.09 -7.07 Q 344.99 -7.99 345.75 -8.77 Q 346.51 -9.55 346.79 -9.55 L 346.79 -9.55 Q 347.37 -9.55 347.37 -8.17 L 347.37 -8.17 Q 347.37 -5.31 344.48 -2.59 Q 341.58 0.12 338.3 0.12 L 338.3 0.12 Q 338.26 0.12 338.22 0.12 L 338.22 0.12 Q 336.26 0.12 335.52 -1.64 L 335.52 -1.64 Q 334.94 -3.08 334.94 -6.23 L 334.94 -6.23 Q 332.19 0.12 326.79 0.12 L 326.79 0.12 Q 323.15 0.12 320.99 -1.7 Q 318.84 -3.52 318.84 -7.47 L 318.84 -7.47 Q 318.84 -8.41 319.88 -12.44 Q 320.92 -16.48 321.53 -19.08 Q 322.15 -21.68 322.15 -23.2 L 322.15 -23.2 Q 322.15 -26.53 320.48 -26.53 L 320.48 -26.53 Q 319.9 -26.53 319.43 -26.2 Q 318.96 -25.87 318.49 -25.49 Q 318.02 -25.12 317.52 -24.8 Q 317.02 -24.48 316.39 -24.48 Q 315.76 -24.48 315.76 -25.58 Z M 360 0.12 Q 359.51 -0.16 359.51 -0.43 Q 359.51 -0.7 359.83 -0.94 Q 360.15 -1.18 361.55 -2.46 L 361.55 -2.46 Q 367.62 -8.05 372.17 -14.67 L 372.17 -14.67 Q 371.38 -18.62 370.7 -21.44 L 370.7 -21.44 Q 369.52 -21.12 368.2 -21.12 L 368.2 -21.12 Q 365.2 -21.12 363.44 -22.14 L 363.44 -22.14 Q 361.17 -23.4 361.17 -25.77 L 361.17 -25.77 Q 361.17 -28.15 362.7 -29.59 Q 364.22 -31.03 366.49 -31.03 Q 368.76 -31.03 370.32 -30.28 Q 371.89 -29.53 373.11 -28.21 L 373.11 -28.21 Q 375.19 -25.99 376.65 -21.56 L 376.65 -21.56 Q 377.43 -22.82 378.31 -24.2 Q 379.19 -25.58 379.94 -26.82 Q 380.69 -28.05 381.31 -28.99 Q 381.93 -29.93 382.25 -30.4 Q 382.56 -30.87 383.12 -30.91 L 383.12 -30.91 Q 383.22 -30.91 383.32 -30.91 L 383.32 -30.91 Q 384.56 -30.91 385.96 -30.47 L 385.96 -30.47 Q 387.48 -29.99 387.46 -29.23 L 387.46 -29.23 Q 387.46 -26.85 378.15 -15.54 L 378.15 -15.54 Q 378.55 -13.35 378.93 -11.37 Q 379.31 -9.39 379.76 -7.89 Q 380.21 -6.39 380.8 -5.49 Q 381.39 -4.58 382.14 -4.58 Q 382.88 -4.58 383.78 -5.37 Q 384.68 -6.15 385.58 -7.07 Q 386.48 -7.99 387.24 -8.77 Q 388 -9.55 388.28 -9.55 L 388.28 -9.55 Q 388.86 -9.55 388.86 -8.17 L 388.86 -8.17 Q 388.86 -5.35 385.95 -2.61 Q 383.04 0.12 379.79 0.12 L 379.79 0.12 Q 376.39 0.12 374.43 -5.79 L 374.43 -5.79 Q 373.85 -7.55 373.33 -9.51 L 373.33 -9.51 Q 372.15 -7.95 370.78 -6.21 Q 369.42 -4.46 367.86 -3 L 367.86 -3 Q 364.34 0.4 361.39 0.4 L 361.39 0.4 Q 360.49 0.4 360 0.12 Z M 367.18 -27.43 Q 366.44 -27.43 366.44 -26.43 Q 366.44 -25.42 367.44 -24.6 Q 368.44 -23.78 370.12 -23.44 L 370.12 -23.44 Q 368.86 -27.43 367.18 -27.43 L 367.18 -27.43 Z" stroke-linecap="round" />
</g>
</g>
</g>
<g transform="matrix(1.9211538461538462 0 0 1.9211538461538462 647.2062314399698 426.2139420203282)" id="tagline-1e6586f8-d0fe-40a7-88e9-d3bbc2eb41fd-logo"  >
<g style=""  paint-order="stroke"   >
		<g transform="matrix(1 0 0 1 0 0)" id="tagline-1e6586f8-d0fe-40a7-88e9-d3bbc2eb41fd-logo-path-0"  >
<path style="stroke: none; stroke-width: 0; stroke-dasharray: none; stroke-linecap: butt; stroke-dashoffset: 0; stroke-linejoin: miter; stroke-miterlimit: 4; fill: rgb(215,166,247); fill-rule: nonzero; opacity: 1;"  paint-order="stroke"  transform=" translate(-28.925, 27.95)" d="M 0.36 -7.99 L 0.36 -7.99 Q 0.36 -16.66 13.48 -22.87 L 13.48 -22.87 Q 13.98 -27.24 14.96 -35.23 L 14.96 -35.23 Q 16.8 -51.67 17.16 -54.31 L 17.16 -54.31 Q 20.2 -56.22 23.49 -56.22 Q 26.77 -56.22 28.47 -55.86 L 28.47 -55.86 L 23.02 -14.06 Q 20.81 0.43 9.03 0.43 L 9.03 0.43 Q 5.09 0.43 2.73 -1.93 Q 0.36 -4.3 0.36 -7.99 Z M 5.85 -8.96 L 5.85 -8.96 Q 5.85 -6.29 8.35 -6.29 L 8.35 -6.29 Q 9.39 -6.29 10.55 -7.66 Q 11.71 -9.03 12.14 -12 L 12.14 -12 L 12.72 -16.58 Q 5.85 -12.57 5.85 -8.96 Z M 26.27 -26.41 L 26.27 -26.41 L 26.77 -31.98 Q 28.11 -32.19 28.85 -32.56 Q 29.59 -32.92 30.79 -34.04 L 30.79 -34.04 Q 33.31 -36.24 34.47 -44.48 L 34.47 -44.48 Q 35.45 -50.69 38.45 -53.51 Q 41.44 -56.33 44.91 -56.33 Q 48.38 -56.33 51.06 -54.29 Q 53.73 -52.25 53.73 -47.73 L 53.73 -47.73 Q 53.73 -41.73 49.39 -37.36 Q 45.06 -32.99 37.36 -29.45 L 37.36 -29.45 Q 40.04 -28.18 41.3 -25.22 Q 42.56 -22.26 42.71 -19.01 Q 42.85 -15.75 42.93 -12.72 L 42.93 -12.72 Q 43.21 -5.64 47.12 -5.64 L 47.12 -5.64 Q 47.12 -5.64 47.15 -5.64 L 47.15 -5.64 L 47.19 -5.64 Q 51.74 -5.64 55.14 -15.9 L 55.14 -15.9 L 57.49 -12.29 Q 56.37 -8.27 54.45 -5.55 Q 52.54 -2.82 50.41 -1.63 L 50.41 -1.63 Q 46.65 0.43 43.21 0.43 L 43.21 0.43 Q 37.29 0.43 34.43 -3 Q 31.58 -6.43 31.44 -12.21 L 31.44 -12.21 Q 31.22 -21.54 30.33 -23.83 Q 29.45 -26.12 26.27 -26.41 Z M 42.31 -38.05 L 42.31 -38.05 Q 48.53 -42.06 48.53 -46.03 L 48.53 -46.03 Q 48.53 -47.15 47.91 -47.73 Q 47.3 -48.31 46.7 -48.31 Q 46.11 -48.31 45.76 -48.17 Q 45.42 -48.02 45.17 -47.7 Q 44.91 -47.37 44.77 -47.03 Q 44.62 -46.68 44.44 -46.02 Q 44.26 -45.35 44.15 -44.88 Q 44.05 -44.41 43.81 -43.52 Q 43.58 -42.64 43.21 -41.12 Q 42.85 -39.6 42.31 -38.05 Z" stroke-linecap="round" />
</g>
</g>
</g>
</svg>